<svg xmlns="http://www.w3.org/2000/svg" xmlns:xlink="http://www.w3.org/1999/xlink" width="1000" zoomAndPan="magnify" viewBox="0 0 750 299.999988" height="400" preserveAspectRatio="xMidYMid meet" version="1.0"><defs><g/><clipPath id="fac7d4eef4"><path d="M 15.023438 53.636719 L 183.023438 53.636719 L 183.023438 222.386719 L 15.023438 222.386719 Z M 15.023438 53.636719 " clip-rule="nonzero"/></clipPath></defs><g clip-path="url(#fac7d4eef4)"><path fill="#232c33" d="M 58.953125 144.863281 L 77.128906 144.863281 C 79.28125 144.863281 80.359375 147.46875 78.835938 148.988281 L 65.988281 161.835938 C 62.453125 156.886719 59.992188 151.117188 58.953125 144.863281 Z M 65.988281 114.4375 L 78.835938 127.28125 C 80.359375 128.804688 79.28125 131.40625 77.128906 131.40625 L 58.953125 131.40625 C 59.992188 125.152344 62.453125 119.382812 65.988281 114.4375 Z M 92.476562 97.886719 L 92.476562 116.058594 C 92.476562 118.210938 89.875 119.289062 88.351562 117.765625 L 75.503906 104.921875 C 80.453125 101.382812 86.222656 98.925781 92.476562 97.886719 Z M 92.476562 178.386719 C 86.222656 177.347656 80.453125 174.886719 75.503906 171.351562 L 88.351562 158.503906 C 89.875 156.980469 92.476562 158.0625 92.476562 160.214844 Z M 105.933594 160.214844 C 105.933594 158.0625 108.535156 156.980469 110.058594 158.503906 L 122.90625 171.351562 C 117.957031 174.886719 112.1875 177.347656 105.933594 178.386719 Z M 105.933594 97.886719 C 112.1875 98.925781 117.957031 101.382812 122.90625 104.921875 L 110.058594 117.765625 C 108.535156 119.289062 105.933594 118.210938 105.933594 116.058594 Z M 132.421875 114.4375 C 135.957031 119.382812 138.417969 125.152344 139.457031 131.40625 L 121.28125 131.40625 C 119.128906 131.40625 118.050781 128.804688 119.574219 127.28125 Z M 132.421875 161.835938 L 119.574219 148.988281 C 118.050781 147.46875 119.128906 144.863281 121.28125 144.863281 L 139.457031 144.863281 C 138.417969 151.117188 135.957031 156.886719 132.421875 161.835938 Z M 99.207031 185.039062 C 125.109375 185.039062 146.109375 164.039062 146.109375 138.136719 C 146.109375 112.230469 125.109375 91.234375 99.207031 91.234375 C 73.300781 91.234375 52.300781 112.230469 52.300781 138.136719 C 52.300781 164.039062 73.300781 185.039062 99.207031 185.039062 Z M 99.207031 75.089844 C 76.242188 75.089844 55.757812 85.695312 42.371094 102.269531 C 53.910156 82.921875 75.039062 69.957031 99.207031 69.957031 C 123.367188 69.957031 144.5 82.921875 156.042969 102.269531 C 142.652344 85.695312 122.167969 75.089844 99.207031 75.089844 Z M 47.183594 138.136719 C 47.183594 109.402344 70.472656 86.113281 99.207031 86.113281 C 127.9375 86.113281 151.226562 109.402344 151.226562 138.136719 C 151.226562 166.867188 127.9375 190.15625 99.207031 190.15625 C 70.472656 190.15625 47.183594 166.867188 47.183594 138.136719 Z M 99.207031 210.695312 C 75.039062 210.695312 53.910156 197.734375 42.371094 178.386719 C 55.757812 194.957031 76.242188 205.5625 99.207031 205.5625 C 122.167969 205.5625 142.652344 194.957031 156.042969 178.386719 C 144.5 197.734375 123.367188 210.695312 99.207031 210.695312 Z M 180.394531 142.515625 L 180.390625 142.511719 C 176.679688 140.773438 176.679688 135.496094 180.390625 133.757812 L 180.394531 133.757812 C 182.28125 132.871094 183.375 130.882812 183.148438 128.8125 C 182.433594 122.304688 180.980469 116.019531 178.871094 110.042969 C 178.191406 108.105469 176.328125 106.832031 174.273438 106.855469 L 174.25 106.855469 C 170.152344 106.898438 167.863281 102.144531 170.449219 98.96875 L 170.457031 98.957031 C 171.777344 97.339844 171.898438 95.070312 170.789062 93.304688 C 167.359375 87.839844 163.324219 82.800781 158.773438 78.269531 C 157.316406 76.820312 155.085938 76.480469 153.246094 77.390625 C 149.570312 79.210938 145.445312 75.917969 146.402344 71.933594 L 146.402344 71.925781 C 146.882812 69.929688 146.054688 67.832031 144.320312 66.734375 C 138.925781 63.316406 133.117188 60.496094 126.984375 58.359375 C 125.019531 57.675781 122.835938 58.300781 121.550781 59.945312 L 121.539062 59.960938 C 119.015625 63.191406 113.875 62.015625 113.003906 58.011719 L 113 58.003906 C 112.558594 55.96875 110.859375 54.453125 108.792969 54.21875 C 105.644531 53.863281 102.445312 53.679688 99.207031 53.679688 C 95.964844 53.679688 92.765625 53.863281 89.617188 54.21875 C 87.550781 54.453125 85.851562 55.96875 85.410156 58.003906 L 85.40625 58.011719 C 84.539062 62.015625 79.394531 63.191406 76.871094 59.960938 L 76.859375 59.945312 C 75.578125 58.300781 73.390625 57.675781 71.425781 58.359375 C 65.292969 60.496094 59.484375 63.316406 54.089844 66.734375 C 52.355469 67.832031 51.53125 69.929688 52.007812 71.925781 L 52.007812 71.933594 C 52.964844 75.917969 48.839844 79.210938 45.167969 77.390625 C 43.324219 76.480469 41.09375 76.820312 39.636719 78.269531 C 35.085938 82.800781 31.050781 87.839844 27.621094 93.304688 C 26.511719 95.070312 26.632812 97.339844 27.953125 98.957031 L 27.960938 98.96875 C 30.546875 102.144531 28.261719 106.898438 24.164062 106.855469 L 24.136719 106.855469 C 22.082031 106.832031 20.21875 108.105469 19.539062 110.042969 C 17.429688 116.019531 15.980469 122.304688 15.261719 128.8125 C 15.035156 130.882812 16.128906 132.871094 18.015625 133.757812 L 18.019531 133.757812 C 21.730469 135.496094 21.730469 140.773438 18.019531 142.511719 L 18.015625 142.515625 C 16.128906 143.398438 15.035156 145.390625 15.261719 147.457031 C 15.980469 153.96875 17.429688 160.253906 19.539062 166.230469 C 20.21875 168.164062 22.082031 169.4375 24.136719 169.417969 L 24.164062 169.417969 C 28.261719 169.375 30.546875 174.128906 27.960938 177.304688 L 27.953125 177.316406 C 26.632812 178.929688 26.511719 181.203125 27.621094 182.964844 C 31.050781 188.429688 35.085938 193.472656 39.636719 198 C 41.09375 199.449219 43.324219 199.789062 45.167969 198.878906 C 48.839844 197.0625 52.964844 200.351562 52.007812 204.335938 L 52.007812 204.347656 C 51.53125 206.34375 52.355469 208.441406 54.089844 209.535156 C 59.484375 212.953125 65.292969 215.773438 71.425781 217.910156 C 73.390625 218.59375 75.578125 217.972656 76.859375 216.328125 L 76.871094 216.308594 C 79.394531 213.078125 84.539062 214.253906 85.40625 218.257812 L 85.410156 218.269531 C 85.851562 220.304688 87.550781 221.816406 89.617188 222.050781 C 92.765625 222.40625 95.964844 222.589844 99.207031 222.589844 C 102.445312 222.589844 105.644531 222.40625 108.792969 222.050781 C 110.859375 221.816406 112.558594 220.304688 113 218.269531 L 113.003906 218.257812 C 113.875 214.253906 119.015625 213.078125 121.539062 216.308594 L 121.550781 216.328125 C 122.835938 217.972656 125.019531 218.59375 126.984375 217.910156 C 133.117188 215.773438 138.925781 212.953125 144.320312 209.535156 C 146.054688 208.441406 146.882812 206.34375 146.402344 204.347656 L 146.402344 204.335938 C 145.445312 200.351562 149.570312 197.0625 153.246094 198.878906 C 155.085938 199.789062 157.316406 199.449219 158.773438 198 C 163.324219 193.472656 167.359375 188.429688 170.789062 182.964844 C 171.898438 181.203125 171.777344 178.929688 170.457031 177.316406 L 170.449219 177.304688 C 167.863281 174.128906 170.152344 169.375 174.25 169.417969 L 174.273438 169.417969 C 176.328125 169.4375 178.191406 168.164062 178.871094 166.230469 C 180.980469 160.253906 182.433594 153.96875 183.148438 147.457031 C 183.375 145.390625 182.28125 143.398438 180.394531 142.515625 " fill-opacity="1" fill-rule="nonzero"/></g><g fill="#628395" fill-opacity="1"><g transform="translate(233.002581, 223.713774)"><g><path d="M 2.328125 -47.078125 C 2.328125 -47.765625 2.695312 -48.109375 3.4375 -48.109375 L 39.875 -48.109375 C 40.613281 -48.109375 40.984375 -47.765625 40.984375 -47.078125 L 40.984375 -42.015625 C 40.984375 -41.410156 40.632812 -41.109375 39.9375 -41.109375 L 27.5 -41.109375 C 27.238281 -41.109375 27.050781 -41.0625 26.9375 -40.96875 C 26.832031 -40.882812 26.78125 -40.71875 26.78125 -40.46875 L 26.78125 -1.109375 C 26.78125 -0.367188 26.457031 0 25.8125 0 L 18.09375 0 C 17.488281 0 17.1875 -0.34375 17.1875 -1.03125 L 17.1875 -40.328125 C 17.1875 -40.628906 17.128906 -40.832031 17.015625 -40.9375 C 16.910156 -41.050781 16.726562 -41.109375 16.46875 -41.109375 L 3.4375 -41.109375 C 3.050781 -41.109375 2.769531 -41.171875 2.59375 -41.296875 C 2.414062 -41.429688 2.328125 -41.671875 2.328125 -42.015625 Z M 2.328125 -47.078125 "/></g></g></g><g fill="#628395" fill-opacity="1"><g transform="translate(293.690803, 223.713774)"><g><path d="M 13.8125 -48.109375 C 14.414062 -48.109375 14.71875 -47.765625 14.71875 -47.078125 L 14.71875 -1.421875 C 14.71875 -0.898438 14.597656 -0.53125 14.359375 -0.3125 C 14.117188 -0.101562 13.71875 0 13.15625 0 L 6.421875 0 C 5.898438 0 5.550781 -0.0820312 5.375 -0.25 C 5.207031 -0.425781 5.125 -0.734375 5.125 -1.171875 L 5.125 -47.015625 C 5.125 -47.742188 5.445312 -48.109375 6.09375 -48.109375 Z M 13.8125 -48.109375 "/></g></g></g><g fill="#628395" fill-opacity="1"><g transform="translate(330.84745, 223.713774)"><g><path d="M 42.53125 -1.5625 C 42.625 -1.425781 42.671875 -1.226562 42.671875 -0.96875 C 42.671875 -0.707031 42.582031 -0.476562 42.40625 -0.28125 C 42.226562 -0.09375 41.988281 0 41.6875 0 L 33.78125 0 C 33.4375 0 33.164062 -0.0703125 32.96875 -0.21875 C 32.78125 -0.375 32.617188 -0.644531 32.484375 -1.03125 L 25.03125 -19.96875 C 24.894531 -20.269531 24.695312 -20.484375 24.4375 -20.609375 C 24.1875 -20.742188 23.800781 -20.8125 23.28125 -20.8125 L 15.5 -20.8125 C 14.976562 -20.8125 14.71875 -20.570312 14.71875 -20.09375 L 14.71875 -1.359375 C 14.71875 -0.878906 14.597656 -0.53125 14.359375 -0.3125 C 14.117188 -0.101562 13.742188 0 13.234375 0 L 6.359375 0 C 5.878906 0 5.550781 -0.09375 5.375 -0.28125 C 5.207031 -0.476562 5.125 -0.773438 5.125 -1.171875 L 5.125 -47.015625 C 5.125 -47.742188 5.445312 -48.109375 6.09375 -48.109375 L 25.609375 -48.109375 C 31.191406 -48.109375 35.515625 -46.984375 38.578125 -44.734375 C 41.648438 -42.492188 43.1875 -39.296875 43.1875 -35.140625 C 43.1875 -31.898438 42.320312 -29.195312 40.59375 -27.03125 C 38.863281 -24.875 36.703125 -23.34375 34.109375 -22.4375 C 33.765625 -22.300781 33.675781 -22.019531 33.84375 -21.59375 Z M 24.25 -27.421875 C 30.257812 -27.421875 33.265625 -29.757812 33.265625 -34.4375 C 33.265625 -36.769531 32.539062 -38.539062 31.09375 -39.75 C 29.644531 -40.957031 27.625 -41.5625 25.03125 -41.5625 L 15.890625 -41.5625 C 15.453125 -41.5625 15.144531 -41.492188 14.96875 -41.359375 C 14.800781 -41.234375 14.71875 -41 14.71875 -40.65625 L 14.71875 -28.40625 C 14.71875 -28.050781 14.78125 -27.796875 14.90625 -27.640625 C 15.039062 -27.492188 15.257812 -27.421875 15.5625 -27.421875 Z M 24.25 -27.421875 "/></g></g></g><g fill="#628395" fill-opacity="1"><g transform="translate(394.387967, 223.713774)"><g><path d="M 5.125 -47.015625 C 5.125 -47.742188 5.445312 -48.109375 6.09375 -48.109375 L 37.546875 -48.109375 C 38.109375 -48.109375 38.390625 -47.785156 38.390625 -47.140625 L 38.390625 -42.21875 C 38.390625 -41.394531 38 -40.984375 37.21875 -40.984375 L 15.828125 -40.984375 C 15.085938 -40.984375 14.71875 -40.679688 14.71875 -40.078125 L 14.71875 -28.71875 C 14.71875 -28.070312 15.019531 -27.75 15.625 -27.75 L 30.40625 -27.75 C 31.0625 -27.75 31.390625 -27.425781 31.390625 -26.78125 L 31.390625 -21.53125 C 31.390625 -21.007812 31.082031 -20.75 30.46875 -20.75 L 15.5625 -20.75 C 15 -20.75 14.71875 -20.488281 14.71875 -19.96875 L 14.71875 -7.90625 C 14.71875 -7.601562 14.769531 -7.394531 14.875 -7.28125 C 14.988281 -7.175781 15.175781 -7.125 15.4375 -7.125 L 38.125 -7.125 C 38.519531 -7.125 38.789062 -7.0625 38.9375 -6.9375 C 39.09375 -6.8125 39.171875 -6.570312 39.171875 -6.21875 L 39.171875 -0.96875 C 39.171875 -0.707031 39.082031 -0.476562 38.90625 -0.28125 C 38.726562 -0.09375 38.445312 0 38.0625 0 L 6.359375 0 C 5.921875 0 5.601562 -0.0820312 5.40625 -0.25 C 5.21875 -0.425781 5.125 -0.734375 5.125 -1.171875 Z M 5.125 -47.015625 "/></g></g></g><g fill="#628395" fill-opacity="1"><g transform="translate(453.520385, 223.713774)"><g/></g></g><g fill="#628395" fill-opacity="1"><g transform="translate(484.388995, 223.713774)"><g><path d="M 2.328125 -47.078125 C 2.328125 -47.765625 2.695312 -48.109375 3.4375 -48.109375 L 39.875 -48.109375 C 40.613281 -48.109375 40.984375 -47.765625 40.984375 -47.078125 L 40.984375 -42.015625 C 40.984375 -41.410156 40.632812 -41.109375 39.9375 -41.109375 L 27.5 -41.109375 C 27.238281 -41.109375 27.050781 -41.0625 26.9375 -40.96875 C 26.832031 -40.882812 26.78125 -40.71875 26.78125 -40.46875 L 26.78125 -1.109375 C 26.78125 -0.367188 26.457031 0 25.8125 0 L 18.09375 0 C 17.488281 0 17.1875 -0.34375 17.1875 -1.03125 L 17.1875 -40.328125 C 17.1875 -40.628906 17.128906 -40.832031 17.015625 -40.9375 C 16.910156 -41.050781 16.726562 -41.109375 16.46875 -41.109375 L 3.4375 -41.109375 C 3.050781 -41.109375 2.769531 -41.171875 2.59375 -41.296875 C 2.414062 -41.429688 2.328125 -41.671875 2.328125 -42.015625 Z M 2.328125 -47.078125 "/></g></g></g><g fill="#628395" fill-opacity="1"><g transform="translate(545.077233, 223.713774)"><g><path d="M 25.03125 0.640625 C 20.570312 0.640625 16.722656 -0.328125 13.484375 -2.265625 C 10.242188 -4.210938 7.75 -7.035156 6 -10.734375 C 4.25 -14.429688 3.375 -18.804688 3.375 -23.859375 C 3.375 -29.003906 4.257812 -33.445312 6.03125 -37.1875 C 7.800781 -40.925781 10.304688 -43.789062 13.546875 -45.78125 C 16.796875 -47.769531 20.625 -48.765625 25.03125 -48.765625 C 29.394531 -48.765625 33.195312 -47.769531 36.4375 -45.78125 C 39.6875 -43.789062 42.195312 -40.925781 43.96875 -37.1875 C 45.738281 -33.445312 46.625 -29.023438 46.625 -23.921875 C 46.625 -18.867188 45.75 -14.492188 44 -10.796875 C 42.25 -7.097656 39.75 -4.265625 36.5 -2.296875 C 33.257812 -0.335938 29.4375 0.640625 25.03125 0.640625 Z M 25.09375 -6.21875 C 29.03125 -6.21875 31.925781 -7.625 33.78125 -10.4375 C 35.644531 -13.25 36.578125 -17.703125 36.578125 -23.796875 C 36.578125 -30.023438 35.632812 -34.609375 33.75 -37.546875 C 31.875 -40.484375 28.96875 -41.953125 25.03125 -41.953125 C 21.09375 -41.953125 18.160156 -40.484375 16.234375 -37.546875 C 14.316406 -34.609375 13.359375 -30.023438 13.359375 -23.796875 C 13.359375 -17.703125 14.304688 -13.25 16.203125 -10.4375 C 18.109375 -7.625 21.070312 -6.21875 25.09375 -6.21875 Z M 25.09375 -6.21875 "/></g></g></g><g fill="#628395" fill-opacity="1"><g transform="translate(612.312814, 223.713774)"><g><path d="M 25.03125 0.640625 C 20.570312 0.640625 16.722656 -0.328125 13.484375 -2.265625 C 10.242188 -4.210938 7.75 -7.035156 6 -10.734375 C 4.25 -14.429688 3.375 -18.804688 3.375 -23.859375 C 3.375 -29.003906 4.257812 -33.445312 6.03125 -37.1875 C 7.800781 -40.925781 10.304688 -43.789062 13.546875 -45.78125 C 16.796875 -47.769531 20.625 -48.765625 25.03125 -48.765625 C 29.394531 -48.765625 33.195312 -47.769531 36.4375 -45.78125 C 39.6875 -43.789062 42.195312 -40.925781 43.96875 -37.1875 C 45.738281 -33.445312 46.625 -29.023438 46.625 -23.921875 C 46.625 -18.867188 45.75 -14.492188 44 -10.796875 C 42.25 -7.097656 39.75 -4.265625 36.5 -2.296875 C 33.257812 -0.335938 29.4375 0.640625 25.03125 0.640625 Z M 25.09375 -6.21875 C 29.03125 -6.21875 31.925781 -7.625 33.78125 -10.4375 C 35.644531 -13.25 36.578125 -17.703125 36.578125 -23.796875 C 36.578125 -30.023438 35.632812 -34.609375 33.75 -37.546875 C 31.875 -40.484375 28.96875 -41.953125 25.03125 -41.953125 C 21.09375 -41.953125 18.160156 -40.484375 16.234375 -37.546875 C 14.316406 -34.609375 13.359375 -30.023438 13.359375 -23.796875 C 13.359375 -17.703125 14.304688 -13.25 16.203125 -10.4375 C 18.109375 -7.625 21.070312 -6.21875 25.09375 -6.21875 Z M 25.09375 -6.21875 "/></g></g></g><g fill="#628395" fill-opacity="1"><g transform="translate(679.548395, 223.713774)"><g><path d="M 5.125 -47.015625 C 5.125 -47.742188 5.445312 -48.109375 6.09375 -48.109375 L 13.8125 -48.109375 C 14.414062 -48.109375 14.71875 -47.765625 14.71875 -47.078125 L 14.71875 -7.90625 C 14.71875 -7.601562 14.769531 -7.394531 14.875 -7.28125 C 14.988281 -7.175781 15.175781 -7.125 15.4375 -7.125 L 36.703125 -7.125 C 37.390625 -7.125 37.734375 -6.820312 37.734375 -6.21875 L 37.734375 -0.96875 C 37.734375 -0.707031 37.644531 -0.476562 37.46875 -0.28125 C 37.300781 -0.09375 37.023438 0 36.640625 0 L 6.359375 0 C 5.878906 0 5.550781 -0.09375 5.375 -0.28125 C 5.207031 -0.476562 5.125 -0.773438 5.125 -1.171875 Z M 5.125 -47.015625 "/></g></g></g><g fill="#ad6a6c" fill-opacity="1"><g transform="translate(214.947888, 137.056772)"><g><path d="M 7.140625 -65.578125 C 7.140625 -66.597656 7.59375 -67.109375 8.5 -67.109375 L 52.375 -67.109375 C 53.15625 -67.109375 53.546875 -66.660156 53.546875 -65.765625 L 53.546875 -58.890625 C 53.546875 -57.742188 53.003906 -57.171875 51.921875 -57.171875 L 22.078125 -57.171875 C 21.046875 -57.171875 20.53125 -56.75 20.53125 -55.90625 L 20.53125 -40.078125 C 20.53125 -39.171875 20.953125 -38.71875 21.796875 -38.71875 L 42.421875 -38.71875 C 43.328125 -38.71875 43.78125 -38.265625 43.78125 -37.359375 L 43.78125 -30.03125 C 43.78125 -29.300781 43.359375 -28.9375 42.515625 -28.9375 L 21.703125 -28.9375 C 20.921875 -28.9375 20.53125 -28.578125 20.53125 -27.859375 L 20.53125 -11.03125 C 20.53125 -10.613281 20.601562 -10.328125 20.75 -10.171875 C 20.90625 -10.023438 21.164062 -9.953125 21.53125 -9.953125 L 53.1875 -9.953125 C 53.726562 -9.953125 54.101562 -9.859375 54.3125 -9.671875 C 54.53125 -9.492188 54.640625 -9.164062 54.640625 -8.6875 L 54.640625 -1.359375 C 54.640625 -0.992188 54.515625 -0.675781 54.265625 -0.40625 C 54.023438 -0.132812 53.632812 0 53.09375 0 L 8.859375 0 C 8.253906 0 7.816406 -0.117188 7.546875 -0.359375 C 7.273438 -0.597656 7.140625 -1.019531 7.140625 -1.625 Z M 7.140625 -65.578125 "/></g></g></g><g fill="#ad6a6c" fill-opacity="1"><g transform="translate(292.98703, 137.056772)"><g><path d="M 3.25 -65.671875 C 3.25 -66.628906 3.765625 -67.109375 4.796875 -67.109375 L 55.625 -67.109375 C 56.65625 -67.109375 57.171875 -66.628906 57.171875 -65.671875 L 57.171875 -58.609375 C 57.171875 -57.765625 56.6875 -57.34375 55.71875 -57.34375 L 38.359375 -57.34375 C 37.992188 -57.34375 37.734375 -57.28125 37.578125 -57.15625 C 37.429688 -57.039062 37.359375 -56.800781 37.359375 -56.4375 L 37.359375 -1.53125 C 37.359375 -0.507812 36.90625 0 36 0 L 25.234375 0 C 24.390625 0 23.96875 -0.484375 23.96875 -1.453125 L 23.96875 -56.265625 C 23.96875 -56.679688 23.890625 -56.960938 23.734375 -57.109375 C 23.585938 -57.265625 23.332031 -57.34375 22.96875 -57.34375 L 4.796875 -57.34375 C 4.253906 -57.34375 3.859375 -57.429688 3.609375 -57.609375 C 3.367188 -57.796875 3.25 -58.128906 3.25 -58.609375 Z M 3.25 -65.671875 "/></g></g></g><g fill="#ad6a6c" fill-opacity="1"><g transform="translate(373.196094, 137.056772)"><g><path d="M 21.625 -29.578125 C 20.894531 -29.578125 20.53125 -29.242188 20.53125 -28.578125 L 20.53125 -1.8125 C 20.53125 -0.601562 19.835938 0 18.453125 0 L 8.859375 0 C 8.203125 0 7.75 -0.132812 7.5 -0.40625 C 7.257812 -0.675781 7.140625 -1.082031 7.140625 -1.625 L 7.140625 -65.578125 C 7.140625 -66.597656 7.59375 -67.109375 8.5 -67.109375 L 19.265625 -67.109375 C 20.109375 -67.109375 20.53125 -66.628906 20.53125 -65.671875 L 20.53125 -41.34375 C 20.53125 -40.375 20.953125 -39.890625 21.796875 -39.890625 L 45.671875 -39.890625 C 46.515625 -39.890625 46.9375 -40.34375 46.9375 -41.25 L 46.9375 -65.671875 C 46.9375 -66.628906 47.363281 -67.109375 48.21875 -67.109375 L 58.96875 -67.109375 C 59.875 -67.109375 60.328125 -66.597656 60.328125 -65.578125 L 60.328125 -1.625 C 60.328125 -0.539062 59.753906 0 58.609375 0 L 49.03125 0 C 48.300781 0 47.769531 -0.132812 47.4375 -0.40625 C 47.101562 -0.675781 46.9375 -1.144531 46.9375 -1.8125 L 46.9375 -28.578125 C 46.9375 -29.242188 46.578125 -29.578125 45.859375 -29.578125 Z M 21.625 -29.578125 "/></g></g></g><g fill="#ad6a6c" fill-opacity="1"><g transform="translate(460.366979, 137.056772)"><g><path d="M 4.515625 0 C 3.734375 0 3.34375 -0.421875 3.34375 -1.265625 C 3.34375 -1.441406 3.40625 -1.773438 3.53125 -2.265625 L 26.328125 -65.484375 C 26.566406 -66.085938 26.835938 -66.507812 27.140625 -66.75 C 27.441406 -66.988281 27.894531 -67.109375 28.5 -67.109375 L 39.796875 -67.109375 C 41.128906 -67.109375 41.972656 -66.507812 42.328125 -65.3125 L 64.953125 -2.171875 C 65.066406 -1.804688 65.125 -1.535156 65.125 -1.359375 C 65.125 -0.992188 65.019531 -0.675781 64.8125 -0.40625 C 64.601562 -0.132812 64.316406 0 63.953125 0 L 53 0 C 52.15625 0 51.613281 -0.390625 51.375 -1.171875 L 46.125 -15.828125 C 46.007812 -16.128906 45.890625 -16.351562 45.765625 -16.5 C 45.648438 -16.65625 45.410156 -16.734375 45.046875 -16.734375 L 21.4375 -16.734375 C 20.894531 -16.734375 20.535156 -16.460938 20.359375 -15.921875 L 14.921875 -1.078125 C 14.742188 -0.359375 14.203125 0 13.296875 0 Z M 41.796875 -26.953125 C 42.335938 -26.953125 42.609375 -27.191406 42.609375 -27.671875 C 42.609375 -27.972656 42.578125 -28.21875 42.515625 -28.40625 L 33.828125 -52.546875 C 33.648438 -52.972656 33.441406 -53.1875 33.203125 -53.1875 C 32.953125 -53.1875 32.738281 -52.945312 32.5625 -52.46875 L 23.796875 -28.40625 C 23.671875 -28.039062 23.609375 -27.769531 23.609375 -27.59375 C 23.609375 -27.164062 23.910156 -26.953125 24.515625 -26.953125 Z M 41.796875 -26.953125 "/></g></g></g><g fill="#ad6a6c" fill-opacity="1"><g transform="translate(548.442007, 137.056772)"><g><path d="M 60.328125 -67.109375 C 60.753906 -67.109375 61.039062 -67.019531 61.1875 -66.84375 C 61.34375 -66.664062 61.421875 -66.332031 61.421875 -65.84375 L 61.421875 -1.359375 C 61.421875 -0.453125 60.90625 0 59.875 0 L 52.375 0 C 51.894531 0 51.503906 -0.0546875 51.203125 -0.171875 C 50.898438 -0.296875 50.566406 -0.570312 50.203125 -1 L 19.265625 -44.953125 C 19.023438 -45.316406 18.796875 -45.484375 18.578125 -45.453125 C 18.367188 -45.421875 18.265625 -45.222656 18.265625 -44.859375 L 18.265625 -1.171875 C 18.265625 -0.390625 17.753906 0 16.734375 0 L 8.78125 0 C 7.6875 0 7.140625 -0.484375 7.140625 -1.453125 L 7.140625 -65.578125 C 7.140625 -66.597656 7.625 -67.109375 8.59375 -67.109375 L 17.640625 -67.109375 C 18.242188 -67.109375 18.695312 -67.03125 19 -66.875 C 19.300781 -66.726562 19.628906 -66.414062 19.984375 -65.9375 L 49.109375 -23.96875 C 49.359375 -23.550781 49.632812 -23.34375 49.9375 -23.34375 C 50.289062 -23.34375 50.46875 -23.640625 50.46875 -24.234375 L 50.46875 -65.671875 C 50.46875 -66.628906 50.953125 -67.109375 51.921875 -67.109375 Z M 60.328125 -67.109375 "/></g></g></g><g fill="#ad6a6c" fill-opacity="1"><g transform="translate(636.697873, 137.056772)"><g><path d="M 5.15625 -42.515625 C 4.789062 -42.515625 4.519531 -42.664062 4.34375 -42.96875 C 4.164062 -43.269531 4.132812 -43.597656 4.25 -43.953125 L 8.234375 -52.828125 C 8.410156 -53.304688 8.5 -53.664062 8.5 -53.90625 C 8.5 -54.445312 8.195312 -54.75 7.59375 -54.8125 L 6.0625 -54.90625 C 5.519531 -54.96875 5.125 -55.101562 4.875 -55.3125 C 4.632812 -55.519531 4.515625 -55.867188 4.515625 -56.359375 L 4.515625 -65.84375 C 4.515625 -66.6875 4.910156 -67.109375 5.703125 -67.109375 L 16.09375 -67.109375 C 16.820312 -67.109375 17.1875 -66.71875 17.1875 -65.9375 L 17.1875 -57.078125 C 17.1875 -56.953125 17.097656 -56.617188 16.921875 -56.078125 L 9.21875 -43.78125 C 8.738281 -42.9375 7.894531 -42.515625 6.6875 -42.515625 Z M 5.15625 -42.515625 "/></g></g></g><g fill="#ad6a6c" fill-opacity="1"><g transform="translate(677.577178, 137.056772)"><g><path d="M 44.953125 -52.46875 C 43.328125 -54.332031 41.425781 -55.789062 39.25 -56.84375 C 37.082031 -57.90625 34.3125 -58.4375 30.9375 -58.4375 C 26.957031 -58.4375 23.894531 -57.664062 21.75 -56.125 C 19.613281 -54.582031 18.546875 -52.488281 18.546875 -49.84375 C 18.546875 -46.164062 21.226562 -43.484375 26.59375 -41.796875 L 40.515625 -37.625 C 50.953125 -34.488281 56.171875 -28.304688 56.171875 -19.078125 C 56.171875 -15.046875 55.113281 -11.519531 53 -8.5 C 50.894531 -5.488281 47.894531 -3.164062 44 -1.53125 C 40.113281 0.09375 35.519531 0.90625 30.21875 0.90625 C 24.300781 0.90625 19.019531 -0.101562 14.375 -2.125 C 9.738281 -4.144531 6.210938 -6.992188 3.796875 -10.671875 C 3.554688 -11.273438 3.4375 -11.640625 3.4375 -11.765625 C 3.4375 -12.242188 3.738281 -12.691406 4.34375 -13.109375 L 10.046875 -17.09375 C 10.703125 -17.457031 11.210938 -17.640625 11.578125 -17.640625 C 12.054688 -17.640625 12.445312 -17.425781 12.75 -17 C 15.101562 -13.925781 17.46875 -11.753906 19.84375 -10.484375 C 22.226562 -9.222656 25.410156 -8.59375 29.390625 -8.59375 C 33.734375 -8.59375 37.140625 -9.316406 39.609375 -10.765625 C 42.085938 -12.210938 43.328125 -14.410156 43.328125 -17.359375 C 43.328125 -19.296875 42.707031 -20.925781 41.46875 -22.25 C 40.238281 -23.570312 38.054688 -24.75 34.921875 -25.78125 L 21.25 -29.9375 C 16.25 -31.445312 12.421875 -33.84375 9.765625 -37.125 C 7.109375 -40.414062 5.78125 -44.113281 5.78125 -48.21875 C 5.78125 -52.070312 6.804688 -55.488281 8.859375 -58.46875 C 10.910156 -61.457031 13.820312 -63.796875 17.59375 -65.484375 C 21.363281 -67.171875 25.71875 -68.015625 30.65625 -68.015625 C 35.425781 -68.015625 39.816406 -67.1875 43.828125 -65.53125 C 47.835938 -63.875 51.019531 -61.597656 53.375 -58.703125 C 53.726562 -58.222656 53.90625 -57.832031 53.90625 -57.53125 C 53.90625 -57.226562 53.726562 -56.925781 53.375 -56.625 L 46.9375 -51.828125 C 46.695312 -51.648438 46.457031 -51.5625 46.21875 -51.5625 C 45.914062 -51.5625 45.492188 -51.863281 44.953125 -52.46875 Z M 44.953125 -52.46875 "/></g></g></g></svg>