<svg xmlns="http://www.w3.org/2000/svg" xmlns:xlink="http://www.w3.org/1999/xlink" width="500" zoomAndPan="magnify" viewBox="0 0 375 374.999991" height="500" preserveAspectRatio="xMidYMid meet" version="1.0"><defs><g/><clipPath id="11914b36c7"><path d="M 61.667969 148.078125 L 113.417969 148.078125 L 113.417969 199.828125 L 61.667969 199.828125 Z M 61.667969 148.078125 " clip-rule="nonzero"/></clipPath></defs><g clip-path="url(#11914b36c7)"><path fill="#232c33" d="M 75.210938 176.191406 L 80.808594 176.191406 C 81.472656 176.191406 81.804688 176.996094 81.335938 177.464844 L 77.378906 181.421875 C 76.289062 179.898438 75.53125 178.121094 75.210938 176.191406 Z M 77.378906 166.816406 L 81.335938 170.773438 C 81.804688 171.242188 81.472656 172.046875 80.808594 172.046875 L 75.210938 172.046875 C 75.53125 170.117188 76.289062 168.339844 77.378906 166.816406 Z M 85.539062 161.714844 L 85.539062 167.3125 C 85.539062 167.980469 84.738281 168.3125 84.269531 167.839844 L 80.308594 163.882812 C 81.835938 162.792969 83.613281 162.035156 85.539062 161.714844 Z M 85.539062 186.523438 C 83.613281 186.203125 81.835938 185.445312 80.308594 184.355469 L 84.269531 180.398438 C 84.738281 179.925781 85.539062 180.261719 85.539062 180.921875 Z M 89.6875 180.921875 C 89.6875 180.261719 90.492188 179.925781 90.960938 180.398438 L 94.917969 184.355469 C 93.394531 185.445312 91.617188 186.203125 89.6875 186.523438 Z M 89.6875 161.714844 C 91.617188 162.035156 93.394531 162.792969 94.917969 163.882812 L 90.960938 167.839844 C 90.492188 168.3125 89.6875 167.980469 89.6875 167.3125 Z M 97.851562 166.816406 C 98.941406 168.339844 99.699219 170.117188 100.019531 172.046875 L 94.417969 172.046875 C 93.753906 172.046875 93.421875 171.242188 93.890625 170.773438 Z M 97.851562 181.421875 L 93.890625 177.464844 C 93.421875 176.996094 93.753906 176.191406 94.417969 176.191406 L 100.019531 176.191406 C 99.699219 178.121094 98.941406 179.898438 97.851562 181.421875 Z M 87.613281 188.574219 C 95.597656 188.574219 102.070312 182.101562 102.070312 174.117188 C 102.070312 166.136719 95.597656 159.664062 87.613281 159.664062 C 79.628906 159.664062 73.160156 166.136719 73.160156 174.117188 C 73.160156 182.101562 79.628906 188.574219 87.613281 188.574219 Z M 87.613281 154.6875 C 80.539062 154.6875 74.222656 157.957031 70.097656 163.0625 C 73.652344 157.101562 80.167969 153.105469 87.613281 153.105469 C 95.0625 153.105469 101.574219 157.101562 105.132812 163.0625 C 101.007812 157.957031 94.691406 154.6875 87.613281 154.6875 Z M 71.582031 174.117188 C 71.582031 165.261719 78.757812 158.085938 87.613281 158.085938 C 96.46875 158.085938 103.648438 165.261719 103.648438 174.117188 C 103.648438 182.972656 96.46875 190.152344 87.613281 190.152344 C 78.757812 190.152344 71.582031 182.972656 71.582031 174.117188 Z M 87.613281 196.480469 C 80.167969 196.480469 73.652344 192.488281 70.097656 186.523438 C 74.222656 191.632812 80.539062 194.902344 87.613281 194.902344 C 94.691406 194.902344 101.007812 191.632812 105.132812 186.523438 C 101.574219 192.488281 95.0625 196.480469 87.613281 196.480469 Z M 112.636719 175.46875 C 111.492188 174.933594 111.492188 173.304688 112.636719 172.769531 C 113.21875 172.496094 113.554688 171.882812 113.484375 171.246094 C 113.265625 169.238281 112.816406 167.300781 112.167969 165.460938 C 111.957031 164.863281 111.382812 164.472656 110.75 164.476562 L 110.742188 164.476562 C 109.480469 164.492188 108.773438 163.027344 109.574219 162.046875 L 109.574219 162.042969 C 109.980469 161.546875 110.019531 160.847656 109.675781 160.300781 C 108.621094 158.617188 107.375 157.0625 105.972656 155.667969 C 105.523438 155.222656 104.835938 155.117188 104.269531 155.398438 C 103.136719 155.957031 101.867188 154.941406 102.160156 153.714844 L 102.160156 153.710938 C 102.308594 153.097656 102.054688 152.449219 101.519531 152.113281 C 99.855469 151.058594 98.066406 150.191406 96.175781 149.53125 C 95.570312 149.320312 94.898438 149.511719 94.5 150.019531 L 94.496094 150.023438 C 93.71875 151.019531 92.136719 150.660156 91.867188 149.425781 L 91.867188 149.421875 C 91.730469 148.792969 91.207031 148.328125 90.570312 148.253906 C 89.597656 148.144531 88.613281 148.089844 87.613281 148.089844 C 86.617188 148.089844 85.628906 148.144531 84.660156 148.253906 C 84.023438 148.328125 83.5 148.792969 83.363281 149.421875 L 83.363281 149.425781 C 83.09375 150.660156 81.507812 151.019531 80.730469 150.023438 L 80.726562 150.019531 C 80.332031 149.511719 79.660156 149.320312 79.050781 149.53125 C 77.164062 150.191406 75.371094 151.058594 73.710938 152.113281 C 73.175781 152.449219 72.921875 153.097656 73.066406 153.710938 L 73.070312 153.714844 C 73.363281 154.941406 72.089844 155.957031 70.960938 155.398438 C 70.390625 155.117188 69.703125 155.222656 69.253906 155.667969 C 67.851562 157.0625 66.609375 158.617188 65.550781 160.300781 C 65.210938 160.847656 65.246094 161.546875 65.652344 162.042969 L 65.65625 162.046875 C 66.453125 163.027344 65.75 164.492188 64.484375 164.476562 L 64.476562 164.476562 C 63.84375 164.472656 63.269531 164.863281 63.058594 165.460938 C 62.410156 167.300781 61.964844 169.238281 61.742188 171.246094 C 61.671875 171.882812 62.011719 172.496094 62.589844 172.769531 L 62.59375 172.769531 C 63.738281 173.304688 63.738281 174.933594 62.59375 175.46875 L 62.589844 175.46875 C 62.011719 175.742188 61.671875 176.355469 61.742188 176.992188 C 61.964844 179 62.410156 180.933594 63.058594 182.777344 C 63.269531 183.375 63.84375 183.765625 64.476562 183.761719 L 64.484375 183.761719 C 65.75 183.746094 66.453125 185.210938 65.65625 186.191406 L 65.652344 186.195312 C 65.246094 186.691406 65.210938 187.390625 65.550781 187.9375 C 66.609375 189.621094 67.851562 191.175781 69.253906 192.570312 C 69.703125 193.015625 70.390625 193.121094 70.960938 192.839844 C 72.089844 192.28125 73.363281 193.292969 73.070312 194.523438 L 73.066406 194.527344 C 72.921875 195.140625 73.175781 195.789062 73.710938 196.125 C 75.371094 197.179688 77.164062 198.046875 79.050781 198.707031 C 79.660156 198.917969 80.332031 198.726562 80.726562 198.21875 L 80.730469 198.214844 C 81.507812 197.21875 83.09375 197.578125 83.363281 198.8125 L 83.363281 198.816406 C 83.5 199.445312 84.023438 199.910156 84.660156 199.980469 C 85.628906 200.09375 86.617188 200.148438 87.613281 200.148438 C 88.613281 200.148438 89.597656 200.09375 90.570312 199.980469 C 91.207031 199.910156 91.730469 199.445312 91.867188 198.816406 L 91.867188 198.8125 C 92.136719 197.578125 93.71875 197.21875 94.496094 198.214844 L 94.5 198.21875 C 94.898438 198.726562 95.570312 198.917969 96.175781 198.707031 C 98.066406 198.046875 99.855469 197.179688 101.519531 196.125 C 102.054688 195.789062 102.308594 195.140625 102.160156 194.527344 L 102.160156 194.523438 C 101.867188 193.292969 103.136719 192.28125 104.269531 192.839844 C 104.835938 193.121094 105.523438 193.015625 105.972656 192.570312 C 107.375 191.175781 108.621094 189.621094 109.675781 187.9375 C 110.019531 187.390625 109.980469 186.691406 109.574219 186.195312 L 109.574219 186.191406 C 108.773438 185.210938 109.480469 183.746094 110.742188 183.761719 L 110.75 183.761719 C 111.382812 183.765625 111.957031 183.375 112.167969 182.777344 C 112.816406 180.933594 113.265625 179 113.484375 176.992188 C 113.554688 176.355469 113.21875 175.742188 112.636719 175.46875 " fill-opacity="1" fill-rule="nonzero"/></g><g fill="#628395" fill-opacity="1"><g transform="translate(128.854977, 200.500914)"><g><path d="M 0.71875 -14.515625 C 0.71875 -14.722656 0.832031 -14.828125 1.0625 -14.828125 L 12.296875 -14.828125 C 12.515625 -14.828125 12.625 -14.722656 12.625 -14.515625 L 12.625 -12.953125 C 12.625 -12.765625 12.519531 -12.671875 12.3125 -12.671875 L 8.46875 -12.671875 C 8.394531 -12.671875 8.335938 -12.65625 8.296875 -12.625 C 8.265625 -12.601562 8.25 -12.550781 8.25 -12.46875 L 8.25 -0.34375 C 8.25 -0.113281 8.148438 0 7.953125 0 L 5.578125 0 C 5.390625 0 5.296875 -0.101562 5.296875 -0.3125 L 5.296875 -12.4375 C 5.296875 -12.519531 5.28125 -12.578125 5.25 -12.609375 C 5.21875 -12.648438 5.160156 -12.671875 5.078125 -12.671875 L 1.0625 -12.671875 C 0.9375 -12.671875 0.847656 -12.691406 0.796875 -12.734375 C 0.742188 -12.773438 0.71875 -12.847656 0.71875 -12.953125 Z M 0.71875 -14.515625 "/></g></g></g><g fill="#628395" fill-opacity="1"><g transform="translate(147.560351, 200.500914)"><g><path d="M 4.25 -14.828125 C 4.4375 -14.828125 4.53125 -14.722656 4.53125 -14.515625 L 4.53125 -0.4375 C 4.53125 -0.28125 4.492188 -0.164062 4.421875 -0.09375 C 4.347656 -0.03125 4.226562 0 4.0625 0 L 1.984375 0 C 1.816406 0 1.707031 -0.0234375 1.65625 -0.078125 C 1.601562 -0.128906 1.578125 -0.222656 1.578125 -0.359375 L 1.578125 -14.484375 C 1.578125 -14.710938 1.675781 -14.828125 1.875 -14.828125 Z M 4.25 -14.828125 "/></g></g></g><g fill="#628395" fill-opacity="1"><g transform="translate(159.012803, 200.500914)"><g><path d="M 13.109375 -0.484375 C 13.140625 -0.441406 13.15625 -0.378906 13.15625 -0.296875 C 13.15625 -0.222656 13.125 -0.15625 13.0625 -0.09375 C 13.007812 -0.03125 12.9375 0 12.84375 0 L 10.40625 0 C 10.300781 0 10.21875 -0.0195312 10.15625 -0.0625 C 10.101562 -0.113281 10.054688 -0.195312 10.015625 -0.3125 L 7.71875 -6.15625 C 7.675781 -6.25 7.613281 -6.316406 7.53125 -6.359375 C 7.457031 -6.398438 7.335938 -6.421875 7.171875 -6.421875 L 4.78125 -6.421875 C 4.613281 -6.421875 4.53125 -6.34375 4.53125 -6.1875 L 4.53125 -0.421875 C 4.53125 -0.273438 4.492188 -0.164062 4.421875 -0.09375 C 4.347656 -0.03125 4.234375 0 4.078125 0 L 1.953125 0 C 1.804688 0 1.707031 -0.03125 1.65625 -0.09375 C 1.601562 -0.15625 1.578125 -0.242188 1.578125 -0.359375 L 1.578125 -14.484375 C 1.578125 -14.710938 1.675781 -14.828125 1.875 -14.828125 L 7.890625 -14.828125 C 9.609375 -14.828125 10.941406 -14.476562 11.890625 -13.78125 C 12.835938 -13.09375 13.3125 -12.109375 13.3125 -10.828125 C 13.3125 -9.828125 13.039062 -8.992188 12.5 -8.328125 C 11.96875 -7.660156 11.304688 -7.191406 10.515625 -6.921875 C 10.410156 -6.878906 10.382812 -6.789062 10.4375 -6.65625 Z M 7.46875 -8.453125 C 9.320312 -8.453125 10.25 -9.171875 10.25 -10.609375 C 10.25 -11.328125 10.023438 -11.875 9.578125 -12.25 C 9.128906 -12.625 8.507812 -12.8125 7.71875 -12.8125 L 4.890625 -12.8125 C 4.765625 -12.8125 4.671875 -12.789062 4.609375 -12.75 C 4.554688 -12.707031 4.53125 -12.632812 4.53125 -12.53125 L 4.53125 -8.75 C 4.53125 -8.644531 4.550781 -8.566406 4.59375 -8.515625 C 4.632812 -8.472656 4.703125 -8.453125 4.796875 -8.453125 Z M 7.46875 -8.453125 "/></g></g></g><g fill="#628395" fill-opacity="1"><g transform="translate(178.597313, 200.500914)"><g><path d="M 1.578125 -14.484375 C 1.578125 -14.710938 1.675781 -14.828125 1.875 -14.828125 L 11.578125 -14.828125 C 11.742188 -14.828125 11.828125 -14.726562 11.828125 -14.53125 L 11.828125 -13.015625 C 11.828125 -12.753906 11.707031 -12.625 11.46875 -12.625 L 4.875 -12.625 C 4.644531 -12.625 4.53125 -12.53125 4.53125 -12.34375 L 4.53125 -8.859375 C 4.53125 -8.648438 4.625 -8.546875 4.8125 -8.546875 L 9.375 -8.546875 C 9.570312 -8.546875 9.671875 -8.445312 9.671875 -8.25 L 9.671875 -6.640625 C 9.671875 -6.472656 9.578125 -6.390625 9.390625 -6.390625 L 4.796875 -6.390625 C 4.617188 -6.390625 4.53125 -6.3125 4.53125 -6.15625 L 4.53125 -2.4375 C 4.53125 -2.34375 4.546875 -2.28125 4.578125 -2.25 C 4.617188 -2.21875 4.675781 -2.203125 4.75 -2.203125 L 11.75 -2.203125 C 11.875 -2.203125 11.957031 -2.179688 12 -2.140625 C 12.050781 -2.097656 12.078125 -2.023438 12.078125 -1.921875 L 12.078125 -0.296875 C 12.078125 -0.222656 12.046875 -0.15625 11.984375 -0.09375 C 11.929688 -0.03125 11.847656 0 11.734375 0 L 1.953125 0 C 1.828125 0 1.734375 -0.0234375 1.671875 -0.078125 C 1.609375 -0.128906 1.578125 -0.222656 1.578125 -0.359375 Z M 1.578125 -14.484375 "/></g></g></g><g fill="#628395" fill-opacity="1"><g transform="translate(196.823156, 200.500914)"><g/></g></g><g fill="#628395" fill-opacity="1"><g transform="translate(206.337504, 200.500914)"><g><path d="M 0.71875 -14.515625 C 0.71875 -14.722656 0.832031 -14.828125 1.0625 -14.828125 L 12.296875 -14.828125 C 12.515625 -14.828125 12.625 -14.722656 12.625 -14.515625 L 12.625 -12.953125 C 12.625 -12.765625 12.519531 -12.671875 12.3125 -12.671875 L 8.46875 -12.671875 C 8.394531 -12.671875 8.335938 -12.65625 8.296875 -12.625 C 8.265625 -12.601562 8.25 -12.550781 8.25 -12.46875 L 8.25 -0.34375 C 8.25 -0.113281 8.148438 0 7.953125 0 L 5.578125 0 C 5.390625 0 5.296875 -0.101562 5.296875 -0.3125 L 5.296875 -12.4375 C 5.296875 -12.519531 5.28125 -12.578125 5.25 -12.609375 C 5.21875 -12.648438 5.160156 -12.671875 5.078125 -12.671875 L 1.0625 -12.671875 C 0.9375 -12.671875 0.847656 -12.691406 0.796875 -12.734375 C 0.742188 -12.773438 0.71875 -12.847656 0.71875 -12.953125 Z M 0.71875 -14.515625 "/></g></g></g><g fill="#628395" fill-opacity="1"><g transform="translate(225.042882, 200.500914)"><g><path d="M 7.71875 0.203125 C 6.34375 0.203125 5.15625 -0.09375 4.15625 -0.6875 C 3.15625 -1.289062 2.382812 -2.160156 1.84375 -3.296875 C 1.3125 -4.441406 1.046875 -5.796875 1.046875 -7.359375 C 1.046875 -8.941406 1.316406 -10.304688 1.859375 -11.453125 C 2.398438 -12.609375 3.171875 -13.492188 4.171875 -14.109375 C 5.171875 -14.722656 6.351562 -15.03125 7.71875 -15.03125 C 9.0625 -15.03125 10.234375 -14.722656 11.234375 -14.109375 C 12.234375 -13.492188 13.003906 -12.609375 13.546875 -11.453125 C 14.097656 -10.304688 14.375 -8.945312 14.375 -7.375 C 14.375 -5.8125 14.101562 -4.460938 13.5625 -3.328125 C 13.019531 -2.191406 12.25 -1.316406 11.25 -0.703125 C 10.25 -0.0976562 9.070312 0.203125 7.71875 0.203125 Z M 7.734375 -1.921875 C 8.941406 -1.921875 9.832031 -2.351562 10.40625 -3.21875 C 10.976562 -4.082031 11.265625 -5.453125 11.265625 -7.328125 C 11.265625 -9.253906 10.972656 -10.671875 10.390625 -11.578125 C 9.816406 -12.484375 8.925781 -12.9375 7.71875 -12.9375 C 6.5 -12.9375 5.59375 -12.484375 5 -11.578125 C 4.40625 -10.671875 4.109375 -9.253906 4.109375 -7.328125 C 4.109375 -5.453125 4.398438 -4.082031 4.984375 -3.21875 C 5.578125 -2.351562 6.492188 -1.921875 7.734375 -1.921875 Z M 7.734375 -1.921875 "/></g></g></g><g fill="#628395" fill-opacity="1"><g transform="translate(245.766288, 200.500914)"><g><path d="M 7.71875 0.203125 C 6.34375 0.203125 5.15625 -0.09375 4.15625 -0.6875 C 3.15625 -1.289062 2.382812 -2.160156 1.84375 -3.296875 C 1.3125 -4.441406 1.046875 -5.796875 1.046875 -7.359375 C 1.046875 -8.941406 1.316406 -10.304688 1.859375 -11.453125 C 2.398438 -12.609375 3.171875 -13.492188 4.171875 -14.109375 C 5.171875 -14.722656 6.351562 -15.03125 7.71875 -15.03125 C 9.0625 -15.03125 10.234375 -14.722656 11.234375 -14.109375 C 12.234375 -13.492188 13.003906 -12.609375 13.546875 -11.453125 C 14.097656 -10.304688 14.375 -8.945312 14.375 -7.375 C 14.375 -5.8125 14.101562 -4.460938 13.5625 -3.328125 C 13.019531 -2.191406 12.25 -1.316406 11.25 -0.703125 C 10.25 -0.0976562 9.070312 0.203125 7.71875 0.203125 Z M 7.734375 -1.921875 C 8.941406 -1.921875 9.832031 -2.351562 10.40625 -3.21875 C 10.976562 -4.082031 11.265625 -5.453125 11.265625 -7.328125 C 11.265625 -9.253906 10.972656 -10.671875 10.390625 -11.578125 C 9.816406 -12.484375 8.925781 -12.9375 7.71875 -12.9375 C 6.5 -12.9375 5.59375 -12.484375 5 -11.578125 C 4.40625 -10.671875 4.109375 -9.253906 4.109375 -7.328125 C 4.109375 -5.453125 4.398438 -4.082031 4.984375 -3.21875 C 5.578125 -2.351562 6.492188 -1.921875 7.734375 -1.921875 Z M 7.734375 -1.921875 "/></g></g></g><g fill="#628395" fill-opacity="1"><g transform="translate(266.489695, 200.500914)"><g><path d="M 1.578125 -14.484375 C 1.578125 -14.710938 1.675781 -14.828125 1.875 -14.828125 L 4.25 -14.828125 C 4.4375 -14.828125 4.53125 -14.722656 4.53125 -14.515625 L 4.53125 -2.4375 C 4.53125 -2.34375 4.546875 -2.28125 4.578125 -2.25 C 4.617188 -2.21875 4.675781 -2.203125 4.75 -2.203125 L 11.3125 -2.203125 C 11.519531 -2.203125 11.625 -2.109375 11.625 -1.921875 L 11.625 -0.296875 C 11.625 -0.222656 11.597656 -0.15625 11.546875 -0.09375 C 11.492188 -0.03125 11.410156 0 11.296875 0 L 1.953125 0 C 1.804688 0 1.707031 -0.03125 1.65625 -0.09375 C 1.601562 -0.15625 1.578125 -0.242188 1.578125 -0.359375 Z M 1.578125 -14.484375 "/></g></g></g><g fill="#ad6a6c" fill-opacity="1"><g transform="translate(123.290138, 173.791424)"><g><path d="M 2.203125 -20.203125 C 2.203125 -20.523438 2.34375 -20.6875 2.625 -20.6875 L 16.140625 -20.6875 C 16.378906 -20.6875 16.5 -20.546875 16.5 -20.265625 L 16.5 -18.140625 C 16.5 -17.785156 16.332031 -17.609375 16 -17.609375 L 6.796875 -17.609375 C 6.484375 -17.609375 6.328125 -17.484375 6.328125 -17.234375 L 6.328125 -12.34375 C 6.328125 -12.070312 6.457031 -11.9375 6.71875 -11.9375 L 13.078125 -11.9375 C 13.347656 -11.9375 13.484375 -11.796875 13.484375 -11.515625 L 13.484375 -9.25 C 13.484375 -9.03125 13.351562 -8.921875 13.09375 -8.921875 L 6.6875 -8.921875 C 6.445312 -8.921875 6.328125 -8.804688 6.328125 -8.578125 L 6.328125 -3.40625 C 6.328125 -3.269531 6.347656 -3.175781 6.390625 -3.125 C 6.441406 -3.082031 6.523438 -3.0625 6.640625 -3.0625 L 16.390625 -3.0625 C 16.554688 -3.0625 16.671875 -3.035156 16.734375 -2.984375 C 16.804688 -2.929688 16.84375 -2.828125 16.84375 -2.671875 L 16.84375 -0.421875 C 16.84375 -0.304688 16.800781 -0.207031 16.71875 -0.125 C 16.644531 -0.0390625 16.523438 0 16.359375 0 L 2.734375 0 C 2.546875 0 2.410156 -0.0351562 2.328125 -0.109375 C 2.242188 -0.179688 2.203125 -0.3125 2.203125 -0.5 Z M 2.203125 -20.203125 "/></g></g></g><g fill="#ad6a6c" fill-opacity="1"><g transform="translate(147.343426, 173.791424)"><g><path d="M 1 -20.234375 C 1 -20.535156 1.160156 -20.6875 1.484375 -20.6875 L 17.140625 -20.6875 C 17.453125 -20.6875 17.609375 -20.535156 17.609375 -20.234375 L 17.609375 -18.0625 C 17.609375 -17.800781 17.460938 -17.671875 17.171875 -17.671875 L 11.8125 -17.671875 C 11.707031 -17.671875 11.628906 -17.648438 11.578125 -17.609375 C 11.535156 -17.578125 11.515625 -17.503906 11.515625 -17.390625 L 11.515625 -0.46875 C 11.515625 -0.15625 11.375 0 11.09375 0 L 7.78125 0 C 7.519531 0 7.390625 -0.148438 7.390625 -0.453125 L 7.390625 -17.34375 C 7.390625 -17.46875 7.363281 -17.550781 7.3125 -17.59375 C 7.269531 -17.644531 7.191406 -17.671875 7.078125 -17.671875 L 1.484375 -17.671875 C 1.304688 -17.671875 1.179688 -17.695312 1.109375 -17.75 C 1.035156 -17.8125 1 -17.914062 1 -18.0625 Z M 1 -20.234375 "/></g></g></g><g fill="#ad6a6c" fill-opacity="1"><g transform="translate(172.06553, 173.791424)"><g><path d="M 6.65625 -9.109375 C 6.4375 -9.109375 6.328125 -9.007812 6.328125 -8.8125 L 6.328125 -0.5625 C 6.328125 -0.1875 6.113281 0 5.6875 0 L 2.734375 0 C 2.523438 0 2.382812 -0.0390625 2.3125 -0.125 C 2.238281 -0.207031 2.203125 -0.332031 2.203125 -0.5 L 2.203125 -20.203125 C 2.203125 -20.523438 2.34375 -20.6875 2.625 -20.6875 L 5.9375 -20.6875 C 6.195312 -20.6875 6.328125 -20.535156 6.328125 -20.234375 L 6.328125 -12.734375 C 6.328125 -12.441406 6.457031 -12.296875 6.71875 -12.296875 L 14.078125 -12.296875 C 14.335938 -12.296875 14.46875 -12.4375 14.46875 -12.71875 L 14.46875 -20.234375 C 14.46875 -20.535156 14.597656 -20.6875 14.859375 -20.6875 L 18.171875 -20.6875 C 18.453125 -20.6875 18.59375 -20.523438 18.59375 -20.203125 L 18.59375 -0.5 C 18.59375 -0.164062 18.414062 0 18.0625 0 L 15.109375 0 C 14.890625 0 14.726562 -0.0390625 14.625 -0.125 C 14.519531 -0.207031 14.46875 -0.351562 14.46875 -0.5625 L 14.46875 -8.8125 C 14.46875 -9.007812 14.351562 -9.109375 14.125 -9.109375 Z M 6.65625 -9.109375 "/></g></g></g><g fill="#ad6a6c" fill-opacity="1"><g transform="translate(198.933412, 173.791424)"><g><path d="M 1.390625 0 C 1.148438 0 1.03125 -0.128906 1.03125 -0.390625 C 1.03125 -0.441406 1.050781 -0.546875 1.09375 -0.703125 L 8.109375 -20.1875 C 8.179688 -20.363281 8.265625 -20.488281 8.359375 -20.5625 C 8.453125 -20.644531 8.59375 -20.6875 8.78125 -20.6875 L 12.265625 -20.6875 C 12.671875 -20.6875 12.929688 -20.5 13.046875 -20.125 L 20.015625 -0.671875 C 20.046875 -0.554688 20.0625 -0.472656 20.0625 -0.421875 C 20.0625 -0.304688 20.03125 -0.207031 19.96875 -0.125 C 19.90625 -0.0390625 19.816406 0 19.703125 0 L 16.328125 0 C 16.066406 0 15.898438 -0.117188 15.828125 -0.359375 L 14.21875 -4.875 C 14.175781 -4.96875 14.132812 -5.035156 14.09375 -5.078125 C 14.0625 -5.128906 13.988281 -5.15625 13.875 -5.15625 L 6.609375 -5.15625 C 6.441406 -5.15625 6.328125 -5.070312 6.265625 -4.90625 L 4.59375 -0.328125 C 4.539062 -0.109375 4.375 0 4.09375 0 Z M 12.875 -8.3125 C 13.039062 -8.3125 13.125 -8.382812 13.125 -8.53125 C 13.125 -8.625 13.113281 -8.695312 13.09375 -8.75 L 10.421875 -16.203125 C 10.367188 -16.328125 10.304688 -16.390625 10.234375 -16.390625 C 10.160156 -16.390625 10.09375 -16.316406 10.03125 -16.171875 L 7.328125 -8.75 C 7.296875 -8.632812 7.28125 -8.550781 7.28125 -8.5 C 7.28125 -8.375 7.367188 -8.3125 7.546875 -8.3125 Z M 12.875 -8.3125 "/></g></g></g><g fill="#ad6a6c" fill-opacity="1"><g transform="translate(226.079969, 173.791424)"><g><path d="M 18.59375 -20.6875 C 18.71875 -20.6875 18.800781 -20.65625 18.84375 -20.59375 C 18.894531 -20.539062 18.921875 -20.441406 18.921875 -20.296875 L 18.921875 -0.421875 C 18.921875 -0.140625 18.765625 0 18.453125 0 L 16.140625 0 C 15.992188 0 15.875 -0.015625 15.78125 -0.046875 C 15.6875 -0.0859375 15.582031 -0.175781 15.46875 -0.3125 L 5.9375 -13.859375 C 5.863281 -13.960938 5.789062 -14.007812 5.71875 -14 C 5.65625 -14 5.625 -13.941406 5.625 -13.828125 L 5.625 -0.359375 C 5.625 -0.117188 5.46875 0 5.15625 0 L 2.703125 0 C 2.367188 0 2.203125 -0.148438 2.203125 -0.453125 L 2.203125 -20.203125 C 2.203125 -20.523438 2.347656 -20.6875 2.640625 -20.6875 L 5.4375 -20.6875 C 5.625 -20.6875 5.765625 -20.660156 5.859375 -20.609375 C 5.953125 -20.566406 6.050781 -20.472656 6.15625 -20.328125 L 15.140625 -7.390625 C 15.210938 -7.253906 15.296875 -7.1875 15.390625 -7.1875 C 15.492188 -7.1875 15.546875 -7.28125 15.546875 -7.46875 L 15.546875 -20.234375 C 15.546875 -20.535156 15.695312 -20.6875 16 -20.6875 Z M 18.59375 -20.6875 "/></g></g></g><g fill="#ad6a6c" fill-opacity="1"><g transform="translate(253.282265, 173.791424)"><g><path d="M 1.59375 -13.09375 C 1.476562 -13.09375 1.390625 -13.140625 1.328125 -13.234375 C 1.273438 -13.328125 1.269531 -13.429688 1.3125 -13.546875 L 2.53125 -16.28125 C 2.59375 -16.425781 2.625 -16.535156 2.625 -16.609375 C 2.625 -16.773438 2.53125 -16.867188 2.34375 -16.890625 L 1.875 -16.921875 C 1.695312 -16.941406 1.570312 -16.984375 1.5 -17.046875 C 1.425781 -17.109375 1.390625 -17.210938 1.390625 -17.359375 L 1.390625 -20.296875 C 1.390625 -20.554688 1.507812 -20.6875 1.75 -20.6875 L 4.96875 -20.6875 C 5.1875 -20.6875 5.296875 -20.566406 5.296875 -20.328125 L 5.296875 -17.59375 C 5.296875 -17.550781 5.269531 -17.445312 5.21875 -17.28125 L 2.84375 -13.484375 C 2.695312 -13.222656 2.4375 -13.09375 2.0625 -13.09375 Z M 1.59375 -13.09375 "/></g></g></g><g fill="#ad6a6c" fill-opacity="1"><g transform="translate(265.882117, 173.791424)"><g><path d="M 13.859375 -16.171875 C 13.347656 -16.742188 12.757812 -17.191406 12.09375 -17.515625 C 11.425781 -17.835938 10.570312 -18 9.53125 -18 C 8.300781 -18 7.359375 -17.757812 6.703125 -17.28125 C 6.046875 -16.8125 5.71875 -16.171875 5.71875 -15.359375 C 5.71875 -14.222656 6.539062 -13.394531 8.1875 -12.875 L 12.484375 -11.59375 C 15.703125 -10.625 17.3125 -8.71875 17.3125 -5.875 C 17.3125 -4.632812 16.984375 -3.546875 16.328125 -2.609375 C 15.679688 -1.679688 14.757812 -0.96875 13.5625 -0.46875 C 12.363281 0.03125 10.945312 0.28125 9.3125 0.28125 C 7.488281 0.28125 5.859375 -0.03125 4.421875 -0.65625 C 2.992188 -1.28125 1.910156 -2.160156 1.171875 -3.296875 C 1.097656 -3.472656 1.0625 -3.582031 1.0625 -3.625 C 1.0625 -3.769531 1.15625 -3.910156 1.34375 -4.046875 L 3.09375 -5.265625 C 3.300781 -5.378906 3.457031 -5.4375 3.5625 -5.4375 C 3.71875 -5.4375 3.84375 -5.367188 3.9375 -5.234375 C 4.65625 -4.285156 5.378906 -3.613281 6.109375 -3.21875 C 6.847656 -2.832031 7.832031 -2.640625 9.0625 -2.640625 C 10.394531 -2.640625 11.441406 -2.863281 12.203125 -3.3125 C 12.972656 -3.757812 13.359375 -4.441406 13.359375 -5.359375 C 13.359375 -5.953125 13.164062 -6.453125 12.78125 -6.859375 C 12.394531 -7.265625 11.722656 -7.625 10.765625 -7.9375 L 6.546875 -9.234375 C 5.003906 -9.691406 3.820312 -10.425781 3 -11.4375 C 2.1875 -12.457031 1.78125 -13.597656 1.78125 -14.859375 C 1.78125 -16.046875 2.09375 -17.097656 2.71875 -18.015625 C 3.351562 -18.941406 4.25 -19.664062 5.40625 -20.1875 C 6.570312 -20.707031 7.921875 -20.96875 9.453125 -20.96875 C 10.921875 -20.96875 12.269531 -20.707031 13.5 -20.1875 C 14.738281 -19.675781 15.722656 -18.976562 16.453125 -18.09375 C 16.554688 -17.945312 16.609375 -17.828125 16.609375 -17.734375 C 16.609375 -17.640625 16.554688 -17.546875 16.453125 -17.453125 L 14.46875 -15.96875 C 14.394531 -15.914062 14.320312 -15.890625 14.25 -15.890625 C 14.15625 -15.890625 14.023438 -15.984375 13.859375 -16.171875 Z M 13.859375 -16.171875 "/></g></g></g></svg>